# xmcd
#
# Track frame offsets:
#	182
#	8580
#	22650
#	36582
#	48097
#	61420
#	75272
#	100502
#	113605
#	132497
#	148737
#	161885
#	176362
#	190762
#	205222
#	218510
#	233000
#	246625
#
# Disc length: 3552 seconds
#
# Revision: 1
# Processed by: cddbd v1.5.2PL0 Copyright (c) Steve Scherf et al.
# Submitted via: EasyCDDAExtractor 16.0.6.1
#
DISCID=e50dde12
DTITLE=Leadbelly - Jazz and Blues Collection - Leadbelly - Cd 56 
DYEAR=1935
DGENRE=Blues
TTITLE0=Goodnight Irene
TTITLE1=Midnight Special
TTITLE2=Alabama Bound
TTITLE3=Rock Island Line
TTITLE4=Can't You Line 'Em
TTITLE5=You Don't Know My Mind
TTITLE6=The Bourgeois Blues
TTITLE7=Good Morning Blues
TTITLE8=C. C. Rider
TTITLE9=Leavin' Blues
TTITLE10=My Baby Quit Me
TTITLE11=Easy Rider
TTITLE12=Alberta
TTITLE13=I'm On My Last Go Round
TTITLE14=Packin' Truck
TTITLE15=Death Letter Blues
TTITLE16=The Gallis Pole
TTITLE17=Match Box Blues
EXTD=
EXTT0=
EXTT1=
EXTT2=
EXTT3=
EXTT4=
EXTT5=
EXTT6=
EXTT7=
EXTT8=
EXTT9=
EXTT10=
EXTT11=
EXTT12=
EXTT13=
EXTT14=
EXTT15=
EXTT16=
EXTT17=
PLAYORDER=
